<svg xmlns="http://www.w3.org/2000/svg" width="338.948" height="223.936" viewBox="0 0 338.948 223.936"><defs><style>.a{fill:#00a99d;}.b{fill:#fff;}</style></defs><g transform="translate(-202.332 -725)"><g transform="translate(202.332 694.298)"><path d="M233.9,88.246H180.074V50.864A20.185,20.185,0,0,0,159.912,30.7H20.163A20.185,20.185,0,0,0,0,50.864v55.42a3.722,3.722,0,0,0,7.443,0V50.864A12.733,12.733,0,0,1,20.163,38.145h139.75a12.733,12.733,0,0,1,12.719,12.719v98.648a12.733,12.733,0,0,1-12.719,12.719h-80.5a7.779,7.779,0,0,0-5.538,2.294L49.209,189.187a.388.388,0,0,1-.663-.274V170.063a7.841,7.841,0,0,0-7.832-7.832H20.163A12.734,12.734,0,0,1,7.443,149.512V121.17a3.722,3.722,0,1,0-7.443,0v28.342a20.185,20.185,0,0,0,20.163,20.163H40.714a.389.389,0,0,1,.389.389v18.849a7.829,7.829,0,0,0,13.37,5.538l19.513-19.513v32.119a20.185,20.185,0,0,0,20.162,20.162H139.22a3.722,3.722,0,1,0,0-7.443H94.148a12.733,12.733,0,0,1-12.719-12.719V169.675h78.484a20.185,20.185,0,0,0,20.162-20.163V95.689H233.9a12.734,12.734,0,0,1,12.719,12.719v98.648A12.733,12.733,0,0,1,233.9,219.776H213.347a7.841,7.841,0,0,0-7.832,7.832v18.849a.388.388,0,0,1-.663.275l-24.661-24.661a7.778,7.778,0,0,0-5.538-2.295H154.108a3.722,3.722,0,1,0,0,7.443h20.544a.39.39,0,0,1,.274.114l24.662,24.662a7.832,7.832,0,0,0,13.37-5.538V227.607a.389.389,0,0,1,.389-.389H233.9a20.185,20.185,0,0,0,20.163-20.162V108.409A20.188,20.188,0,0,0,233.9,88.246Z" transform="translate(0)"/><path d="M231.934,340.845A11.942,11.942,0,1,0,243.876,328.9,11.955,11.955,0,0,0,231.934,340.845Zm16.44,0a4.5,4.5,0,1,1-4.5-4.5A4.5,4.5,0,0,1,248.374,340.845Z" transform="translate(-116.846 -150.23)"/><path d="M157.383,241.445A11.942,11.942,0,1,0,169.325,229.5a11.956,11.956,0,0,0-11.942,11.942Zm16.441,0a4.5,4.5,0,1,1-4.5-4.5,4.5,4.5,0,0,1,4.5,4.5Z" transform="translate(-79.288 -100.154)"/><path d="M164.575,117.974A28.386,28.386,0,1,0,124.249,92.22a11.942,11.942,0,0,0,23.884,0,4.4,4.4,0,0,1,1.432-3.291,4.517,4.517,0,0,1,3.412-1.2,4.593,4.593,0,0,1,4.142,4.144,4.521,4.521,0,0,1-2.781,4.511,22.034,22.034,0,0,0-13.648,20.495v8.22a11.942,11.942,0,1,0,23.884,0v-7.129Zm-3.99-6.378a5.651,5.651,0,0,0-3.453,5.286v8.22a4.5,4.5,0,1,1-9,0v-8.22a14.618,14.618,0,0,1,9.032-13.61,11.953,11.953,0,0,0,7.379-11.908,12.1,12.1,0,0,0-11.06-11.057q-.426-.029-.847-.029A11.943,11.943,0,0,0,140.691,92.22a4.5,4.5,0,0,1-9,0A20.941,20.941,0,1,1,160.585,111.6Z" transform="translate(-62.595 -16.694)"/><path d="M404.919,340.846a11.942,11.942,0,1,0-11.942,11.942A11.955,11.955,0,0,0,404.919,340.846Zm-16.441,0a4.5,4.5,0,1,1,4.5,4.5A4.5,4.5,0,0,1,388.478,340.846Z" transform="translate(-191.961 -150.231)"/><path d="M318.426,352.788a11.942,11.942,0,1,0-11.942-11.942A11.955,11.955,0,0,0,318.426,352.788Zm0-16.441a4.5,4.5,0,1,1-4.5,4.5A4.5,4.5,0,0,1,318.426,336.347Z" transform="translate(-154.403 -150.231)"/></g><g transform="translate(423.392 826.289)"><path class="a" d="M112.291,39.652H78.171V31.687a9.191,9.191,0,0,0-9.181-9.181H48.9a9.191,9.191,0,0,0-9.181,9.181v7.966H5.6a5.6,5.6,0,0,0-5.6,5.6v71.8a5.6,5.6,0,0,0,5.6,5.6H112.291a5.6,5.6,0,0,0,5.6-5.6v-71.8A5.6,5.6,0,0,0,112.291,39.652ZM49.18,31.968H68.708v7.684H49.18Zm9.764,83.089A33.908,33.908,0,1,1,92.852,81.15,33.908,33.908,0,0,1,58.944,115.057Z" transform="translate(0)"/><circle class="b" cx="35.287" cy="35.287" r="35.287" transform="translate(23.923 45.916)"/><path class="a" d="M133.474,131.6h-10.6v-10.6a4.457,4.457,0,0,0-4.457-4.457h-4.106a4.457,4.457,0,0,0-4.457,4.457v10.6H99.25a4.457,4.457,0,0,0-4.457,4.457v4.106a4.457,4.457,0,0,0,4.457,4.457h10.6v10.6a4.457,4.457,0,0,0,4.457,4.457h4.106a4.457,4.457,0,0,0,4.457-4.457v-10.6h10.6a4.457,4.457,0,0,0,4.457-4.457v-4.106A4.457,4.457,0,0,0,133.474,131.6Z" transform="translate(-57.419 -56.958)"/></g></g></svg>