<svg xmlns="http://www.w3.org/2000/svg" width="339.042" height="295.326" viewBox="0 0 339.042 295.326"><defs><style>.a{fill:#d7d0d6;}.b{fill:#00a99d;}.c{fill:#97da7b;}.d{fill:#80d261;}.e{fill:#fdf6ec;}.f{fill:#fef1da;}.g{fill:#ee6161;}.h{fill:#e94444;}.i{fill:#f9f7f8;}</style></defs><g transform="translate(-806.737 -1157.988)"><g transform="translate(806.737 1157.988)"><path d="M120.558,0V90.479H15V256.357H256.276V0ZM30.08,135.718h90.479v15.146H30.08Zm0,30.226h90.479v15.013H30.08Zm0,30.093h90.479v15.08H30.08Zm0,45.239V226.2h90.479v15.08Zm150.8,0H165.8V196.038h15.08Zm22.62,0h-7.54V180.958H150.718v60.319h-15.08V120.638H30.08v-15.08H211.037V241.277Zm37.7,0h-15.08V90.479H135.638V15.08H241.2Z" transform="translate(-15)"/><path d="M285,60h15.08V75.08H285Z" transform="translate(-149.282 -29.84)"/><path d="M345,60h15.08V75.08H345Z" transform="translate(-179.122 -29.84)"/><path d="M405,60h15.08V75.08H405Z" transform="translate(-208.963 -29.84)"/><path d="M285,120h15.08v15.08H285Z" transform="translate(-149.282 -59.681)"/><path d="M345,120h15.08v15.08H345Z" transform="translate(-179.122 -59.681)"/><path d="M405,120h15.08v15.08H405Z" transform="translate(-208.963 -59.681)"/><path d="M90.08,90.16h15.08v15.08h15.08V60H105.16V75.08H90.08V60H75v45.239H90.08Z" transform="translate(-44.84 -29.84)"/><path d="M315.16,240H300.08v15.08H285v15.08h15.08v15.08h15.08V270.16h15.08V255.08H315.16Z" transform="translate(-149.282 -119.362)"/></g><g transform="translate(972.594 1281.398)"><g transform="translate(2.774 1.686)"><path class="a" d="M354.829,340.377l26.72,26.72a7.945,7.945,0,0,1,0,11.236l-2.139,2.139a7.945,7.945,0,0,1-11.236,0l-26.565-26.565L322.484,334.49l15.038-12.676Z" transform="translate(-216.007 -215.11)"/><ellipse class="b" cx="78.311" cy="78.311" rx="78.311" ry="78.311" transform="translate(0 0)"/><path class="b" d="M36.353,133.867A77.935,77.935,0,0,1,49.368,90.624h-23.2a78.329,78.329,0,0,0,92.24,121.463c-1.24.058-2.491.091-3.746.091a78.311,78.311,0,0,1-78.311-78.311Z" transform="translate(-8.187 -62.242)"/><g transform="translate(26.475 76.756)"><g transform="translate(0)"><path class="c" d="M193.853,234.249l-87.533-.835L86.336,262.1l1.453,11.2a62.594,62.594,0,0,0,5.631,6.3l21.964,5.615h50.226l15.14-5.615a62.232,62.232,0,0,0,18.558-39.39Z" transform="translate(-86.336 -233.414)"/></g></g><path class="d" d="M92.226,293.122l-5.891,8.457,1.453,11.2a62.6,62.6,0,0,0,5.631,6.3l18.147,4.64A78.341,78.341,0,0,1,92.226,293.122Z" transform="translate(-59.86 -196.139)"/><path class="c" d="M61.681,223.076l-9.216,10.3a62,62,0,0,0,5.119,20.056h0L70.923,251.3l13-23.89Z" transform="translate(-37.465 -149.823)"/><path class="d" d="M71.269,250.667a78,78,0,0,1-5.6-26.813l-3.99-.778-9.216,10.3a62,62,0,0,0,5.119,20.056h0L70.923,251.3Z" transform="translate(-37.465 -149.823)"/><path class="b" d="M41.432,47.711a32.635,32.635,0,0,0,4.62,8.727L57.78,72.61a16.8,16.8,0,0,1,2.838,6.353l.879,4.07a11.141,11.141,0,0,0,21.778,0l.879-4.069a16.8,16.8,0,0,1,2.838-6.353L98.722,56.438a32.7,32.7,0,0,0-3.1-42.55,33.4,33.4,0,0,0-2.729-2.454A78.4,78.4,0,0,0,41.432,47.711Z" transform="translate(-30.169 -9.88)"/><path class="c" d="M157.82,78.365,154.849,67.68a62.449,62.449,0,0,0-101.234,39.7h0l12.732,7.193h73.812l23.177-17.8Z" transform="translate(-38.225 -37.816)"/><path class="d" d="M66.562,139c-.11-1.7-.172-3.407-.172-5.131A77.935,77.935,0,0,1,79.405,90.624H77.948a62.394,62.394,0,0,0-24.334,41.181h0L66.349,139h.213Z" transform="translate(-38.224 -62.242)"/><path class="d" d="M100.9,111.238l.879-4.069a16.8,16.8,0,0,1,2.838-6.353l11.728-16.172a32.731,32.731,0,0,0,4.5-30.552A62.47,62.47,0,0,0,68.081,90.723L75.4,100.816a16.8,16.8,0,0,1,2.838,6.353l.879,4.07a11.007,11.007,0,0,0,1.487,3.6h18.8a11.007,11.007,0,0,0,1.488-3.6Z" transform="translate(-47.79 -38.087)"/><path class="c" d="M324.75,124.941l-8.428,1.239L295.569,157.4l23.443,5.124,18.256-8.029A62.07,62.07,0,0,0,324.75,124.941Z" transform="translate(-198.21 -84.934)"/><g transform="translate(14.78 29.864)"><path class="e" d="M176.7,143.446q0,2.653-.22,5.248H90.757a3.132,3.132,0,0,0-2.527,1.282l-23.267,31.8a62.326,62.326,0,0,1-7.809-13.029h0L70.948,149.9a.758.758,0,0,0-.611-1.205h-18.3q-.219-2.6-.22-5.248a62.627,62.627,0,0,1,.61-8.747h71.921a.523.523,0,0,0,.422-.214L153.655,95l0,0a62.556,62.556,0,0,1,9.916,10.143l-21.015,28.723a.523.523,0,0,0,.422.832h33.111A62.643,62.643,0,0,1,176.7,143.446Z" transform="translate(-51.815 -95.001)"/></g><g transform="translate(14.78 69.562)"><path class="f" d="M83.4,287.678a77.747,77.747,0,0,1-5.668-15.951L67.577,285.6h0a62.325,62.325,0,0,0,7.809,13.029Z" transform="translate(-62.235 -251.554)"/><path class="f" d="M66.1,226.176a78.918,78.918,0,0,1-.9-11.933c0-.69.012-1.376.03-2.061H52.425a62.627,62.627,0,0,0-.61,8.747q0,2.653.22,5.248Z" transform="translate(-51.815 -212.181)"/></g><path class="f" d="M121.7,212.181H98.371l.775,3.589a11.141,11.141,0,0,0,21.778,0Z" transform="translate(-67.819 -142.619)"/><path class="g" d="M82.7,10.012A25.991,25.991,0,0,0,61.2,51.485l11.749,16.2a23.677,23.677,0,0,1,3.976,8.9l.879,4.07a4.365,4.365,0,0,0,8.532,0l.879-4.07a23.673,23.673,0,0,1,3.976-8.9l11.749-16.2A25.991,25.991,0,0,0,82.7,10.012Z" transform="translate(-39.856 -8.935)"/><path class="h" d="M85.943,74.7a23.677,23.677,0,0,0-3.976-8.9L70.218,49.6A26,26,0,0,1,81.264,10.045,25.99,25.99,0,0,0,61.2,51.512l11.749,16.2a23.677,23.677,0,0,1,3.976,8.9l.879,4.07a4.365,4.365,0,0,0,8.532,0l.448-2.073Z" transform="translate(-39.856 -8.962)"/><g transform="translate(28.125 12.967)"><path class="i" d="M94.643,50a14.092,14.092,0,1,1-3.437,9.223A14.052,14.052,0,0,1,94.643,50Z" transform="translate(-91.206 -45.125)"/><path class="e" d="M194.575,369.761a62.442,62.442,0,0,1-87.33,0Z" transform="translate(-101.811 -259.781)"/><path class="f" d="M121.015,369.761h-13.77a62.252,62.252,0,0,0,35,17.2A78.641,78.641,0,0,1,121.015,369.761Z" transform="translate(-101.811 -259.781)"/></g><ellipse class="g" cx="8.175" cy="8.175" rx="8.175" ry="8.175" transform="translate(70.136 97.265)"/></g><g transform="translate(0 0)"><path d="M109.3,176.154a64.984,64.984,0,0,0,0-129.969c-.14,0-.28,0-.42,0l-.232,0a2.541,2.541,0,0,0,.023,5.082h.025l.27,0c.111,0,.222,0,.333,0A59.591,59.591,0,0,1,145.177,63.23L118.363,99.88H89.429a2.541,2.541,0,1,0,0,5.082h30.224a2.54,2.54,0,0,0,2.051-1.041l27.41-37.466a60.429,60.429,0,0,1,6.284,6.5l-20.456,27.96a2.541,2.541,0,0,0,2.05,4.041H168.88a60.33,60.33,0,0,1,.32,6.208c0,.907-.024,1.807-.064,2.7H149.5a2.541,2.541,0,0,0,0,5.082h19.193A59.76,59.76,0,0,1,152.037,153.1H120.756a2.541,2.541,0,0,0,0,5.082h25.629a59.781,59.781,0,0,1-74.172,0h27.8a2.541,2.541,0,1,0,0-5.082H66.56q-1.742-1.776-3.337-3.691L85.5,118.956h53.174a2.541,2.541,0,1,0,0-5.082H84.21a2.54,2.54,0,0,0-2.051,1.041L60.016,145.181a59.966,59.966,0,0,1-4.876-8.429l13.781-18.837a2.541,2.541,0,0,0-2.05-4.041H49.459c-.04-.9-.064-1.8-.064-2.7a60.592,60.592,0,0,1,.321-6.208h9.438a2.541,2.541,0,0,0,0-5.082H50.462a59.529,59.529,0,0,1,2.761-9.816,2.541,2.541,0,1,0-4.755-1.791,65.014,65.014,0,0,0,60.83,87.88ZM142,99.88l16.6-22.692a59.584,59.584,0,0,1,9.528,22.692ZM61.864,118.956l-9,12.3a59.409,59.409,0,0,1-2.963-12.3H61.864Z" transform="translate(-29.301 -31.173)"/><path d="M170.112,153.748,144.95,128.586A80.007,80.007,0,0,0,80,1.872a81.059,81.059,0,0,0-9.859.605,2.541,2.541,0,0,0,.62,5.044A76,76,0,0,1,80,6.954a74.915,74.915,0,0,1,52.973,127.889,74.926,74.926,0,0,1-118.9-88.581A2.541,2.541,0,1,0,9.6,43.843a80.012,80.012,0,0,0,118.572,101.9l7.6,7.6a2.541,2.541,0,0,0,3.594-3.593l-7.221-7.221q2.27-1.958,4.414-4.1,2.785-2.785,5.259-5.791l24.7,24.7a5.4,5.4,0,0,1,0,7.643l-2.139,2.139a5.4,5.4,0,0,1-7.642,0l-9.711-9.711a2.541,2.541,0,0,0-3.593,3.593l9.711,9.711a10.486,10.486,0,0,0,14.83,0l2.139-2.139a10.485,10.485,0,0,0,0-14.829Z" transform="translate(0 -1.872)"/><path d="M100.339,37.625A16.633,16.633,0,1,0,116.971,54.26,16.622,16.622,0,0,0,100.339,37.625Zm8.734,24.193A11.551,11.551,0,0,1,91.6,46.7h0a11.55,11.55,0,1,1,17.467,15.118Z" transform="translate(-55.348 -25.513)"/><path d="M65.936,64.219a21.009,21.009,0,0,1,3.549,7.944l.879,4.07a6.906,6.906,0,0,0,13.5,0l.879-4.069a21.01,21.01,0,0,1,3.549-7.945l3.691-5.089a2.541,2.541,0,0,0-4.114-2.984l-3.691,5.089a26.06,26.06,0,0,0-4.4,9.855L78.9,75.16a1.824,1.824,0,0,1-3.566,0l-.879-4.07a26.06,26.06,0,0,0-4.4-9.854L58.282,45.01a23.45,23.45,0,1,1,37.646.024l-1.654,2.28A2.541,2.541,0,0,0,98.388,50.3l1.636-2.256a28.532,28.532,0,1,0-45.839-.024Z" transform="translate(-32.123 -2.29)"/><path d="M218.429,320.125a2.541,2.541,0,0,0,2.541-2.541V307.579a10.716,10.716,0,1,0-5.082,0v10.005a2.541,2.541,0,0,0,2.541,2.541Zm-5.635-22.956a5.634,5.634,0,1,1,5.635,5.634A5.641,5.641,0,0,1,212.795,297.17Z" transform="translate(-137.344 -190.044)"/></g></g></g></svg>