<svg xmlns="http://www.w3.org/2000/svg" width="142.362" height="124" viewBox="0 0 142.362 124"><defs><style>.a{fill:#00a99d;}</style></defs><g transform="translate(-739 -1693)"><g transform="translate(739 1693)"><path d="M25.43,151A25.417,25.417,0,0,0,8.146,195.064,20.083,20.083,0,0,1,19.9,185.816a10.9,10.9,0,1,1,11.059,0,20.083,20.083,0,0,1,11.754,9.249A25.417,25.417,0,0,0,25.43,151Z" transform="translate(0 -114.43)"/><path d="M69.7,321.479a12.736,12.736,0,0,0-11.281,6.928,25.391,25.391,0,0,0,22.561,0A12.736,12.736,0,0,0,69.7,321.479Z" transform="translate(-44.273 -243.621)"/><ellipse cx="3.5" cy="4" rx="3.5" ry="4" transform="translate(22 58)"/><path d="M310.146,44.064A20.083,20.083,0,0,1,321.9,34.816a10.9,10.9,0,1,1,11.06,0,20.083,20.083,0,0,1,11.754,9.249,25.43,25.43,0,1,0-34.568,0Z" transform="translate(-228.859)"/><path d="M360.422,177.407a25.39,25.39,0,0,0,22.561,0,12.648,12.648,0,0,0-22.561,0Z" transform="translate(-273.132 -129.191)"/><circle cx="3.5" cy="3.5" r="3.5" transform="translate(95 22)"/><path d="M327.43,302a25.417,25.417,0,0,0-17.284,44.064,20.083,20.083,0,0,1,11.754-9.249,10.9,10.9,0,1,1,11.06,0,20.083,20.083,0,0,1,11.754,9.249A25.417,25.417,0,0,0,327.43,302Z" transform="translate(-228.859 -228.859)"/><path d="M371.7,472.478a12.737,12.737,0,0,0-11.281,6.928,25.39,25.39,0,0,0,22.561,0A12.736,12.736,0,0,0,371.7,472.478Z" transform="translate(-273.132 -358.05)"/><circle cx="3.5" cy="3.5" r="3.5" transform="translate(95 95)"/><path d="M213.64,148.447a32.718,32.718,0,0,1,3.642,6.287l14.266-8.236a32.467,32.467,0,0,1-2.68-6.842Z" transform="translate(-161.899 -105.832)"/><path d="M213.64,316.373l15.228,8.792a32.474,32.474,0,0,1,2.68-6.842l-14.266-8.237A32.7,32.7,0,0,1,213.64,316.373Z" transform="translate(-161.899 -234.987)"/></g><path d="M18.75,9H18V6A6,6,0,0,0,6,6V9H5.25A2.253,2.253,0,0,0,3,11.25v10.5A2.253,2.253,0,0,0,5.25,24h13.5A2.253,2.253,0,0,0,21,21.75V11.25A2.253,2.253,0,0,0,18.75,9ZM8,6a4,4,0,0,1,8,0V9H8Zm5,10.722V19a1,1,0,0,1-2,0V16.722a2,2,0,1,1,2,0Z" transform="translate(860 1719)"/><g transform="translate(787.913 1787.65)"><g transform="translate(77.125 0)"><path class="a" d="M92.283,9.358H81.789V5.976a3.646,3.646,0,0,1,2.8-3.615,3.572,3.572,0,0,1,4.2,3.5,1.166,1.166,0,0,0,2.332,0A5.855,5.855,0,0,0,84.7.03a6.054,6.054,0,0,0-5.247,6.063V9.358H78.291a1.168,1.168,0,0,0-1.166,1.166v11.66a1.254,1.254,0,0,0,1.166,1.166H92.283a1.168,1.168,0,0,0,1.166-1.166V10.524A1.1,1.1,0,0,0,92.283,9.358Zm-5.83,7.812v1.516a1.166,1.166,0,0,1-2.332,0V17.17a2.4,2.4,0,0,1-1.166-1.982,2.31,2.31,0,0,1,2.915-2.215,2.628,2.628,0,0,1,1.749,1.749A2.27,2.27,0,0,1,86.453,17.17Z" transform="translate(-77.125 0)"/></g></g></g></svg>