<svg xmlns="http://www.w3.org/2000/svg" xmlns:xlink="http://www.w3.org/1999/xlink" width="289" height="291.412" viewBox="0 0 289 291.412"><defs><style>.a{fill:#fff;stroke:#707070;}.b{clip-path:url(#a);}.c{fill:#00a99d;}.d,.f{fill:none;}.d{stroke:#00a99d;stroke-width:8px;}.e{stroke:none;}</style><clipPath id="a"><ellipse class="a" cx="115.5" cy="115" rx="115.5" ry="115" transform="translate(-0.378 -0.369)"/></clipPath></defs><g transform="translate(-812 -212)"><g class="b" transform="translate(825.378 226.369)"><g transform="translate(15.31 -0.272)"><g transform="translate(0)"><g transform="translate(0)"><path class="c" d="M140.432,344.352a6.723,6.723,0,1,0,6.721,6.723A6.724,6.724,0,0,0,140.432,344.352Z" transform="translate(-86.039 -181.65)"/><path class="c" d="M193.974,318.329a103.009,103.009,0,0,1-19.409-8.985,18.863,18.863,0,0,0-2.013-1.114,5.358,5.358,0,0,0-6.478.739q-.331.421-.676.839c-6.024,7.046-25.859,15.58-25.866,15.582a3.66,3.66,0,0,0-2.695,3.529v.01l.069,24.374a27.027,27.027,0,1,1-54.052,0V343.1a13.147,13.147,0,1,1,8.948-.12v9.864c0,10.644,8.107,19.313,18.087,19.313,9.964,0,18.081-8.669,18.081-19.313l.047-23.763v-.007s0,0,0-.007v-.154l-.009-.023a4.061,4.061,0,0,0-2.443-3.271c-.016-.008-21.134-10.542-27.328-18.425a5.358,5.358,0,0,0-6.478-.738c-5.405,2.979-12.755,5.437-22.043,8.787-28.642,10.326-36.9,20.859-36.9,28.044v47.048H230.875V343.289C230.874,336.1,222.619,328.655,193.974,318.329Z" transform="translate(-32.818 -161.267)"/><path class="c" d="M143.533,69.086c1.474,19.363,9.174,11.018,10.762,19.5,3.125,16.69,9.506,17.33,11.747,23.074.5,1.292.8,7.467.8,9.517,0,6.87-.376,10.51-3.065,14-.61.792-1.639,3.377-.324,5.339,5.948,8.869,17.428,16.325,28.216,16.464,10.788-.138,22.267-7.594,28.216-16.464,1.314-1.96.285-4.546-.325-5.339-2.688-3.488-3.066-7.128-3.066-14,0-2.051.3-8.225.8-9.517,2.241-5.745,8.622-6.384,11.747-23.074,1.588-8.482,9.289-.137,10.763-19.5,0-7.717-4.2-9.635-4.2-9.635s2.137-11.42,2.974-20.207C239.607,28.29,232.177,0,192.545,0h-1.757c-39.631,0-47.062,28.29-46.025,39.243.837,8.787,2.974,20.207,2.974,20.207S143.533,61.37,143.533,69.086Z" transform="translate(-91.221)"/></g></g></g></g><g transform="translate(812 212)"><g class="d"><ellipse class="e" cx="128" cy="128.5" rx="128" ry="128.5"/><ellipse class="f" cx="128" cy="128.5" rx="124" ry="124.5"/></g><rect class="c" width="97.658" height="12.221" transform="translate(217.577 215.871) rotate(43)"/></g></g></svg>