<svg xmlns="http://www.w3.org/2000/svg" xmlns:xlink="http://www.w3.org/1999/xlink" width="177" height="140" viewBox="0 0 177 140"><defs><style>.a,.g{fill:#fff;}.a,.f{stroke:#707070;}.b{fill:#949494;}.c,.f,.i{fill:none;}.c{stroke:#00a99d;stroke-width:2px;}.d{clip-path:url(#a);}.e{fill:#00a99d;}.h{stroke:none;}</style><clipPath id="a"><circle class="a" cx="26" cy="26" r="26" transform="translate(0.243 -0.152)"/></clipPath></defs><g transform="translate(-1018 -1692)"><ellipse class="b" cx="14.5" cy="15" rx="14.5" ry="15" transform="translate(1133 1692)"/><ellipse class="b" cx="14.5" cy="15" rx="14.5" ry="15" transform="translate(1051 1692)"/><ellipse class="b" cx="14.5" cy="15" rx="14.5" ry="15" transform="translate(1166 1748)"/><ellipse class="b" cx="14.5" cy="15" rx="14.5" ry="15" transform="translate(1018 1748)"/><ellipse class="b" cx="14.5" cy="15" rx="14.5" ry="15" transform="translate(1133 1802)"/><ellipse class="b" cx="14.5" cy="15" rx="14.5" ry="15" transform="translate(1051 1802)"/><g transform="translate(23 -14)"><g class="c" transform="translate(1053 1748)"><ellipse class="h" cx="28.5" cy="29" rx="28.5" ry="29"/><ellipse class="i" cx="28.5" cy="29" rx="27.5" ry="28"/></g><g class="d" transform="translate(1055.757 1751.152)"><g transform="translate(3.373 0.057)"><g transform="translate(0)"><g transform="translate(0)"><path class="e" d="M135.227,344.352a1.518,1.518,0,1,0,1.518,1.518A1.518,1.518,0,0,0,135.227,344.352Z" transform="translate(-122.944 -307.609)"/><path class="e" d="M69.212,308.563a23.262,23.262,0,0,1-4.383-2.029,4.26,4.26,0,0,0-.455-.252,1.21,1.21,0,0,0-1.463.167q-.075.1-.153.189c-1.36,1.591-5.84,3.518-5.841,3.519a.826.826,0,0,0-.609.8h0l.016,5.5a6.1,6.1,0,1,1-12.207,0v-2.3a2.969,2.969,0,1,1,2.021-.027v2.228a4.093,4.093,0,1,0,8.168,0l.011-5.366h0v-.035l0-.005a.917.917,0,0,0-.552-.739s-4.773-2.381-6.171-4.161a1.21,1.21,0,0,0-1.463-.167,38.261,38.261,0,0,1-4.978,1.984c-6.468,2.332-8.333,4.711-8.333,6.333v10.625H77.545V314.2C77.545,312.577,75.681,310.895,69.212,308.563Z" transform="translate(-32.818 -273.093)"/><path class="e" d="M143.533,15.6c.333,4.373,2.072,2.488,2.43,4.4.706,3.769,2.147,3.914,2.653,5.211a12.153,12.153,0,0,1,.18,2.149c0,1.552-.085,2.373-.692,3.161a1.145,1.145,0,0,0-.073,1.206,7.319,7.319,0,0,0,12.744,0,1.145,1.145,0,0,0-.073-1.206c-.607-.788-.692-1.61-.692-3.161a12.154,12.154,0,0,1,.18-2.149c.506-1.3,1.947-1.442,2.653-5.211.359-1.915,2.1-.031,2.431-4.4,0-1.743-.949-2.176-.949-2.176s.483-2.579.672-4.563C165.229,6.389,163.551,0,154.6,0h-.4c-8.95,0-10.628,6.389-10.394,8.862.189,1.984.672,4.563.672,4.563S143.533,13.859,143.533,15.6Z" transform="translate(-131.72)"/></g></g></g></g></g><path class="f" d="M8552.388,1787.65,8565,1802.881" transform="translate(-7430)"/><path class="f" d="M8563.163,1787.65l-10.776,12.881" transform="translate(-7477.411 2.35)"/><path class="f" d="M8563,1763h29.348" transform="translate(-7428)"/><path class="f" d="M8587.444,1763H8563" transform="translate(-7513.282)"/><path class="f" d="M8547.718,1734l17.19-13.849" transform="translate(-7430)"/><path class="f" d="M8562.136,1732.132l-14.419-11.982" transform="translate(-6986.451 -1597.528) rotate(11)"/><g transform="translate(1024 1755)"><g transform="translate(5.101 4.995)"><path class="g" d="M162.68,190.561h-1.455v-1.455a.531.531,0,0,0-.528-.535h-2.1a.531.531,0,0,0-.531.531v1.455h-1.452a.531.531,0,0,0-.535.528v2.1a.531.531,0,0,0,.531.531h1.455v1.452a.531.531,0,0,0,.528.535h2.1a.531.531,0,0,0,.531-.531h0v-1.455h1.455a.531.531,0,0,0,.535-.528v-2.1A.531.531,0,0,0,162.68,190.561ZM162.5,193h-1.63a.357.357,0,0,0-.357.357v1.63h-1.733v-1.63a.357.357,0,0,0-.357-.357h-1.63v-1.73h1.63a.357.357,0,0,0,.357-.357v-1.634h1.73v1.63a.357.357,0,0,0,.357.357H162.5Z" transform="translate(-156.078 -188.57)"/></g><g transform="translate(0 0)"><path class="g" d="M14.874,38.05H11.935V36.795a1.038,1.038,0,0,0-1-1.071q-.044,0-.088,0H6.492a1.038,1.038,0,0,0-1.091.982q0,.044,0,.088v1.248H2.461A2.313,2.313,0,0,0,0,40.5v7.758a2.313,2.313,0,0,0,2.461,2.461H14.874a2.313,2.313,0,0,0,2.461-2.461V40.511A2.312,2.312,0,0,0,14.874,38.05Zm-8.76-1.256a.334.334,0,0,1,.382-.382h4.348c.382,0,.382.275.382.382v1.248H6.114ZM16.621,48.262a1.6,1.6,0,0,1-1.748,1.748H2.461A1.6,1.6,0,0,1,.713,48.262V40.511a1.6,1.6,0,0,1,1.748-1.748H14.874a1.6,1.6,0,0,1,1.748,1.748v7.751Z" transform="translate(0 -35.723)"/></g></g><g transform="translate(1172 1755)"><g transform="translate(5.101 4.995)"><path class="g" d="M162.68,190.561h-1.455v-1.455a.531.531,0,0,0-.528-.535h-2.1a.531.531,0,0,0-.531.531v1.455h-1.452a.531.531,0,0,0-.535.528v2.1a.531.531,0,0,0,.531.531h1.455v1.452a.531.531,0,0,0,.528.535h2.1a.531.531,0,0,0,.531-.531h0v-1.455h1.455a.531.531,0,0,0,.535-.528v-2.1A.531.531,0,0,0,162.68,190.561ZM162.5,193h-1.63a.357.357,0,0,0-.357.357v1.63h-1.733v-1.63a.357.357,0,0,0-.357-.357h-1.63v-1.73h1.63a.357.357,0,0,0,.357-.357v-1.634h1.73v1.63a.357.357,0,0,0,.357.357H162.5Z" transform="translate(-156.078 -188.57)"/></g><g transform="translate(0 0)"><path class="g" d="M14.874,38.05H11.935V36.795a1.038,1.038,0,0,0-1-1.071q-.044,0-.088,0H6.492a1.038,1.038,0,0,0-1.091.982q0,.044,0,.088v1.248H2.461A2.313,2.313,0,0,0,0,40.5v7.758a2.313,2.313,0,0,0,2.461,2.461H14.874a2.313,2.313,0,0,0,2.461-2.461V40.511A2.312,2.312,0,0,0,14.874,38.05Zm-8.76-1.256a.334.334,0,0,1,.382-.382h4.348c.382,0,.382.275.382.382v1.248H6.114ZM16.621,48.262a1.6,1.6,0,0,1-1.748,1.748H2.461A1.6,1.6,0,0,1,.713,48.262V40.511a1.6,1.6,0,0,1,1.748-1.748H14.874a1.6,1.6,0,0,1,1.748,1.748v7.751Z" transform="translate(0 -35.723)"/></g></g><g transform="translate(1139 1699)"><g transform="translate(5.101 4.995)"><path class="g" d="M162.68,190.561h-1.455v-1.455a.531.531,0,0,0-.528-.535h-2.1a.531.531,0,0,0-.531.531v1.455h-1.452a.531.531,0,0,0-.535.528v2.1a.531.531,0,0,0,.531.531h1.455v1.452a.531.531,0,0,0,.528.535h2.1a.531.531,0,0,0,.531-.531h0v-1.455h1.455a.531.531,0,0,0,.535-.528v-2.1A.531.531,0,0,0,162.68,190.561ZM162.5,193h-1.63a.357.357,0,0,0-.357.357v1.63h-1.733v-1.63a.357.357,0,0,0-.357-.357h-1.63v-1.73h1.63a.357.357,0,0,0,.357-.357v-1.634h1.73v1.63a.357.357,0,0,0,.357.357H162.5Z" transform="translate(-156.078 -188.57)"/></g><g transform="translate(0 0)"><path class="g" d="M14.874,38.05H11.935V36.795a1.038,1.038,0,0,0-1-1.071q-.044,0-.088,0H6.492a1.038,1.038,0,0,0-1.091.982q0,.044,0,.088v1.248H2.461A2.313,2.313,0,0,0,0,40.5v7.758a2.313,2.313,0,0,0,2.461,2.461H14.874a2.313,2.313,0,0,0,2.461-2.461V40.511A2.312,2.312,0,0,0,14.874,38.05Zm-8.76-1.256a.334.334,0,0,1,.382-.382h4.348c.382,0,.382.275.382.382v1.248H6.114ZM16.621,48.262a1.6,1.6,0,0,1-1.748,1.748H2.461A1.6,1.6,0,0,1,.713,48.262V40.511a1.6,1.6,0,0,1,1.748-1.748H14.874a1.6,1.6,0,0,1,1.748,1.748v7.751Z" transform="translate(0 -35.723)"/></g></g><g transform="translate(1139 1810)"><g transform="translate(5.101 4.995)"><path class="g" d="M162.68,190.561h-1.455v-1.455a.531.531,0,0,0-.528-.535h-2.1a.531.531,0,0,0-.531.531v1.455h-1.452a.531.531,0,0,0-.535.528v2.1a.531.531,0,0,0,.531.531h1.455v1.452a.531.531,0,0,0,.528.535h2.1a.531.531,0,0,0,.531-.531h0v-1.455h1.455a.531.531,0,0,0,.535-.528v-2.1A.531.531,0,0,0,162.68,190.561ZM162.5,193h-1.63a.357.357,0,0,0-.357.357v1.63h-1.733v-1.63a.357.357,0,0,0-.357-.357h-1.63v-1.73h1.63a.357.357,0,0,0,.357-.357v-1.634h1.73v1.63a.357.357,0,0,0,.357.357H162.5Z" transform="translate(-156.078 -188.57)"/></g><g transform="translate(0 0)"><path class="g" d="M14.874,38.05H11.935V36.795a1.038,1.038,0,0,0-1-1.071q-.044,0-.088,0H6.492a1.038,1.038,0,0,0-1.091.982q0,.044,0,.088v1.248H2.461A2.313,2.313,0,0,0,0,40.5v7.758a2.313,2.313,0,0,0,2.461,2.461H14.874a2.313,2.313,0,0,0,2.461-2.461V40.511A2.312,2.312,0,0,0,14.874,38.05Zm-8.76-1.256a.334.334,0,0,1,.382-.382h4.348c.382,0,.382.275.382.382v1.248H6.114ZM16.621,48.262a1.6,1.6,0,0,1-1.748,1.748H2.461A1.6,1.6,0,0,1,.713,48.262V40.511a1.6,1.6,0,0,1,1.748-1.748H14.874a1.6,1.6,0,0,1,1.748,1.748v7.751Z" transform="translate(0 -35.723)"/></g></g><g transform="translate(1057 1810)"><g transform="translate(5.101 4.995)"><path class="g" d="M162.68,190.561h-1.455v-1.455a.531.531,0,0,0-.528-.535h-2.1a.531.531,0,0,0-.531.531v1.455h-1.452a.531.531,0,0,0-.535.528v2.1a.531.531,0,0,0,.531.531h1.455v1.452a.531.531,0,0,0,.528.535h2.1a.531.531,0,0,0,.531-.531h0v-1.455h1.455a.531.531,0,0,0,.535-.528v-2.1A.531.531,0,0,0,162.68,190.561ZM162.5,193h-1.63a.357.357,0,0,0-.357.357v1.63h-1.733v-1.63a.357.357,0,0,0-.357-.357h-1.63v-1.73h1.63a.357.357,0,0,0,.357-.357v-1.634h1.73v1.63a.357.357,0,0,0,.357.357H162.5Z" transform="translate(-156.078 -188.57)"/></g><g transform="translate(0 0)"><path class="g" d="M14.874,38.05H11.935V36.795a1.038,1.038,0,0,0-1-1.071q-.044,0-.088,0H6.492a1.038,1.038,0,0,0-1.091.982q0,.044,0,.088v1.248H2.461A2.313,2.313,0,0,0,0,40.5v7.758a2.313,2.313,0,0,0,2.461,2.461H14.874a2.313,2.313,0,0,0,2.461-2.461V40.511A2.312,2.312,0,0,0,14.874,38.05Zm-8.76-1.256a.334.334,0,0,1,.382-.382h4.348c.382,0,.382.275.382.382v1.248H6.114ZM16.621,48.262a1.6,1.6,0,0,1-1.748,1.748H2.461A1.6,1.6,0,0,1,.713,48.262V40.511a1.6,1.6,0,0,1,1.748-1.748H14.874a1.6,1.6,0,0,1,1.748,1.748v7.751Z" transform="translate(0 -35.723)"/></g></g><g transform="translate(1057 1699)"><g transform="translate(5.101 4.995)"><path class="g" d="M162.68,190.561h-1.455v-1.455a.531.531,0,0,0-.528-.535h-2.1a.531.531,0,0,0-.531.531v1.455h-1.452a.531.531,0,0,0-.535.528v2.1a.531.531,0,0,0,.531.531h1.455v1.452a.531.531,0,0,0,.528.535h2.1a.531.531,0,0,0,.531-.531h0v-1.455h1.455a.531.531,0,0,0,.535-.528v-2.1A.531.531,0,0,0,162.68,190.561ZM162.5,193h-1.63a.357.357,0,0,0-.357.357v1.63h-1.733v-1.63a.357.357,0,0,0-.357-.357h-1.63v-1.73h1.63a.357.357,0,0,0,.357-.357v-1.634h1.73v1.63a.357.357,0,0,0,.357.357H162.5Z" transform="translate(-156.078 -188.57)"/></g><g transform="translate(0 0)"><path class="g" d="M14.874,38.05H11.935V36.795a1.038,1.038,0,0,0-1-1.071q-.044,0-.088,0H6.492a1.038,1.038,0,0,0-1.091.982q0,.044,0,.088v1.248H2.461A2.313,2.313,0,0,0,0,40.5v7.758a2.313,2.313,0,0,0,2.461,2.461H14.874a2.313,2.313,0,0,0,2.461-2.461V40.511A2.312,2.312,0,0,0,14.874,38.05Zm-8.76-1.256a.334.334,0,0,1,.382-.382h4.348c.382,0,.382.275.382.382v1.248H6.114ZM16.621,48.262a1.6,1.6,0,0,1-1.748,1.748H2.461A1.6,1.6,0,0,1,.713,48.262V40.511a1.6,1.6,0,0,1,1.748-1.748H14.874a1.6,1.6,0,0,1,1.748,1.748v7.751Z" transform="translate(0 -35.723)"/></g></g></g></svg>