<svg id="Layer_1" data-name="Layer 1" xmlns="http://www.w3.org/2000/svg" viewBox="0 0 699.36 432.91"><title>Artboard 4 copy</title><path d="M507.32,179.78s8.6-80-79.94-79.94H352.86v67.71h78.6v94.92h75.86Z" style="fill:#ed1c24"/><path d="M513.89,171.42h89.52V101.13h-86V15.91H434.28v80C508.24,95.7,512.83,151.37,513.89,171.42Z" style="fill:#00a99d"/><path d="M340.46,105a131.37,131.37,0,0,0-34.88,6,116.68,116.68,0,0,0-33.06,16.87l-.92.67c-.46-.34-.92-.34-.92-.67a130.37,130.37,0,0,0-33.07-16.87,131.38,131.38,0,0,0-39.49-6.07c-15.15,0-30.31,3.71-44.54,14.17V107.9H96.18V262.46h57.4V179.78c0-17.89,20.2-33.75,44.54-33.75s44.54,15.52,44.54,33.75v82.68h57.4V200.18c0-17.08,17.75-31.79,40.39-33.57Z" style="fill:#999"/><path d="M15.8,330.51H44.68L64.62,387h.25l20.07-56.54h28.76v86.64H94.6V350.71h-.25L71.6,417.15H57l-21.9-66.45h-.25v66.45H15.8Z" style="fill:#333"/><path d="M221.49,347.4H196.78V330.51H265.3V347.4H240.58v69.75H221.49Z" style="fill:#333"/><path d="M348.14,330.51h19.09v86.64H348.14Z" style="fill:#333"/><path d="M458,330.51h32.3a81.81,81.81,0,0,1,11.32.8,30.86,30.86,0,0,1,10.22,3.18,19.59,19.59,0,0,1,7.34,6.67q2.81,4.28,2.81,11.38a18.16,18.16,0,0,1-4.1,12.17,22.5,22.5,0,0,1-10.83,6.92v.25a24.66,24.66,0,0,1,7.77,2.39,20.74,20.74,0,0,1,6,4.53,19.34,19.34,0,0,1,3.85,6.43,22.59,22.59,0,0,1,1.35,7.83,20.84,20.84,0,0,1-2.94,11.44,23.12,23.12,0,0,1-7.59,7.4,33.3,33.3,0,0,1-10.46,4,56,56,0,0,1-11.56,1.22H458Zm19.09,34.63h13.83a19.4,19.4,0,0,0,4.34-.49,12,12,0,0,0,3.86-1.59,8.31,8.31,0,0,0,2.75-2.94,8.79,8.79,0,0,0,1-4.4,8,8,0,0,0-1.16-4.47,8.13,8.13,0,0,0-3-2.75,14.35,14.35,0,0,0-4.16-1.41,24.86,24.86,0,0,0-4.53-.43h-13Zm0,35.85h17.13a21.05,21.05,0,0,0,4.47-.49,11.79,11.79,0,0,0,4.1-1.71,9.69,9.69,0,0,0,3-3.18,9.2,9.2,0,0,0,1.16-4.77,7.66,7.66,0,0,0-1.53-5,9.73,9.73,0,0,0-3.86-2.88,19.81,19.81,0,0,0-5-1.35,37.61,37.61,0,0,0-5-.37H477.12Z" style="fill:#333"/><path d="M683.8,383.74a41.79,41.79,0,0,1-2.33,14.2,31.22,31.22,0,0,1-6.92,11.26,31.62,31.62,0,0,1-11.44,7.46,48,48,0,0,1-31.69,0A31.6,31.6,0,0,1,620,409.2a31.15,31.15,0,0,1-6.91-11.26,41.69,41.69,0,0,1-2.33-14.2V330.51h19.09V383a21.09,21.09,0,0,0,1.29,7.46,17.82,17.82,0,0,0,3.61,5.94,16.34,16.34,0,0,0,5.57,3.92,17.43,17.43,0,0,0,7,1.41,17,17,0,0,0,7-1.41,16.58,16.58,0,0,0,5.51-3.92,17.89,17.89,0,0,0,3.61-5.94A21.09,21.09,0,0,0,664.7,383v-52.5H683.8Z" style="fill:#333"/></svg>