<svg id="Layer_1" data-name="Layer 1" xmlns="http://www.w3.org/2000/svg" viewBox="0 0 699.36 432.91"><title>Artboard 4 copy 6</title><path d="M560.31,257.78S571.63,152.43,455,152.49H356.89v89.17H460.4v125h99.91Z"/><path d="M569,246.76H686.86V154.19H573.61V42H464.12V147.3C561.52,147,567.57,220.36,569,246.76Z" style="fill:gray"/><path d="M340.56,159.23a173,173,0,0,0-45.94,7.88,153.66,153.66,0,0,0-43.54,22.22l-1.21.89c-.6-.44-1.21-.44-1.21-.89a171.7,171.7,0,0,0-43.55-22.22,173,173,0,0,0-52-8c-20,0-39.91,4.89-58.66,18.66V163.11H18.86V366.66H94.45V257.77c0-23.56,26.61-44.44,58.66-44.44s58.66,20.44,58.66,44.44V366.66h75.6v-82c0-22.49,23.37-41.86,53.19-44.2Z" style="fill:#4d4d4d"/></svg>