<svg id="Layer_1" data-name="Layer 1" xmlns="http://www.w3.org/2000/svg" viewBox="0 0 699.36 432.91"><title>Artboard 4 copy 5</title><rect width="699.36" height="432.91" style="fill:#333"/><path d="M560.31,256S571.63,150.71,455,150.77H356.89v89.17H460.4v125h99.91Z" style="fill:#f2f2f2"/><path d="M569,245H686.86V152.46H573.61V40.24H464.12V145.57C561.52,145.32,567.57,218.63,569,245Z" style="fill:#e6e6e6"/><path d="M340.56,157.5a173,173,0,0,0-45.94,7.88,153.66,153.66,0,0,0-43.54,22.22l-1.21.89c-.6-.44-1.21-.44-1.21-.89a171.7,171.7,0,0,0-43.55-22.22,173,173,0,0,0-52-8c-20,0-39.91,4.89-58.66,18.66V161.38H18.86V364.93H94.45V256c0-23.56,26.61-44.44,58.66-44.44S211.77,232,211.77,256V364.93h75.6v-82c0-22.49,23.37-41.86,53.19-44.2Z" style="fill:#fff"/></svg>